<svg viewBox="0 0 24 24" fill="none" xmlns="http://www.w3.org/2000/svg">
<path d="M15.7939 8.38867C16.0495 8.38867 16.2567 8.59606 16.2568 8.85156C16.2568 9.10715 16.0495 9.31445 15.7939 9.31445H15.3018L15.0059 13.751C14.982 14.1088 14.9629 14.4049 14.9277 14.6445C14.8917 14.8895 14.8347 15.1136 14.7158 15.3223C14.5306 15.6474 14.2507 15.9091 13.9141 16.0723C13.698 16.1769 13.4704 16.2187 13.2236 16.2383C12.9823 16.2574 12.6857 16.2568 12.3271 16.2568H10.9297C10.5715 16.2568 10.2754 16.2574 10.0342 16.2383C9.78728 16.2187 9.55893 16.177 9.34277 16.0723C9.00636 15.9091 8.7271 15.6471 8.54199 15.3223C8.42324 15.1137 8.36606 14.8894 8.33008 14.6445C8.29493 14.405 8.27482 14.1087 8.25098 13.751L7.95508 9.31445H7.46289C7.20749 9.31423 7.00005 9.10701 7 8.85156C7.00015 8.5962 7.20755 8.3889 7.46289 8.38867H15.7939ZM9.1748 13.6895C9.19963 14.0618 9.21751 14.3149 9.24609 14.5098C9.27382 14.6985 9.30702 14.7962 9.3457 14.8643H9.34668C9.43921 15.0265 9.57907 15.1577 9.74707 15.2393C9.81753 15.2733 9.91734 15.3003 10.1074 15.3154C10.3036 15.331 10.5568 15.3311 10.9297 15.3311H12.3271C12.7003 15.3311 12.9541 15.331 13.1504 15.3154C13.3407 15.3003 13.4403 15.2734 13.5107 15.2393C13.679 15.1577 13.8186 15.0267 13.9111 14.8643C13.9499 14.7962 13.9839 14.6989 14.0117 14.5098C14.0403 14.3149 14.0572 14.0619 14.082 13.6895L14.374 9.31445H8.88379L9.1748 13.6895ZM10.7031 10.4717C10.9586 10.4718 11.1659 10.6791 11.166 10.9346V13.249C11.1658 13.5044 10.9585 13.7118 10.7031 13.7119C10.4478 13.7117 10.2405 13.5043 10.2402 13.249V10.9346C10.2404 10.6792 10.4478 10.4719 10.7031 10.4717ZM12.5547 10.4717C12.8101 10.4719 13.0174 10.6792 13.0176 10.9346V13.249C13.0174 13.5043 12.81 13.7117 12.5547 13.7119C12.2994 13.7117 12.092 13.5043 12.0918 13.249V10.9346C12.0919 10.6792 12.2993 10.4719 12.5547 10.4717ZM13.0176 7C13.2729 7.00022 13.4803 7.20752 13.4805 7.46289C13.4805 7.71839 13.273 7.92556 13.0176 7.92578H10.2402C9.9848 7.92556 9.77734 7.71838 9.77734 7.46289C9.77749 7.20753 9.98489 7.00023 10.2402 7H13.0176Z" fill="currentColor"/>
</svg>
