<svg viewBox="0 0 24 24" fill="none" xmlns="http://www.w3.org/2000/svg">
<path d="M12.6855 7.42871C14.1372 7.42871 15.3145 8.60589 15.3145 10.0576C15.3143 10.7832 15.0194 11.4395 14.5439 11.915C15.3124 12.3738 15.8281 13.2119 15.8281 14.1719C15.8279 15.6233 14.6516 16.7996 13.2002 16.7998H8.57129C8.2557 16.7998 8 16.5441 8 16.2285V8C8 7.68441 8.2557 7.42871 8.57129 7.42871H12.6855ZM9.14258 15.6572H13.2002C14.0204 15.657 14.6853 14.9921 14.6855 14.1719C14.6855 13.3515 14.0206 12.6857 13.2002 12.6855H9.14258V15.6572ZM9.14258 11.543H12.6855C13.5059 11.543 14.1706 10.8779 14.1709 10.0576C14.1709 9.23708 13.5061 8.57129 12.6855 8.57129H9.14258V11.543Z" fill="currentColor"/>
</svg>
