<svg viewBox="0 0 24 24" fill="none" xmlns="http://www.w3.org/2000/svg">
<path d="M9.25312 8.16709C9.47622 7.94434 9.83865 7.94429 10.0617 8.16709C10.2847 8.39014 10.2845 8.75253 10.0617 8.97568L7.38008 11.6573L10.0617 14.339C10.2843 14.5619 10.2842 14.9235 10.0617 15.1466C9.83856 15.3697 9.47628 15.3697 9.25312 15.1466L6.16719 12.0616C5.94432 11.8385 5.94422 11.4761 6.16719 11.253L9.25312 8.16709ZM13.3674 8.16709C13.5905 7.94432 13.9529 7.94429 14.176 8.16709L17.2609 11.253C17.484 11.4761 17.4839 11.8384 17.2609 12.0616L14.176 15.1466C13.9528 15.3697 13.5905 15.3697 13.3674 15.1466C13.1447 14.9234 13.1445 14.562 13.3674 14.339L16.049 11.6573L13.3674 8.97568C13.1445 8.7525 13.1443 8.39016 13.3674 8.16709Z" fill="currentColor"/>
</svg>
