<svg viewBox="0 0 24 24" fill="none" xmlns="http://www.w3.org/2000/svg">
<path d="M16.1973 15.9121C16.532 15.9124 16.8037 16.1838 16.8037 16.5186C16.8036 16.8533 16.532 17.1248 16.1973 17.125H7.46387C7.12897 17.125 6.8575 16.8534 6.85742 16.5186C6.85742 16.1836 7.12893 15.9121 7.46387 15.9121H16.1973ZM12.1396 6.85742C12.356 6.85742 12.551 6.98759 12.6338 7.1875L15.5918 14.334C15.7375 14.686 15.4786 15.0731 15.0977 15.0732H15.0078C14.7908 15.0731 14.5948 14.9421 14.5127 14.7412L13.8105 13.0234C13.7813 13.0285 13.7514 13.0332 13.7207 13.0332H10.293C10.2599 13.0332 10.2277 13.0284 10.1963 13.0225L9.49512 14.7412C9.41292 14.9421 9.21711 15.0732 9 15.0732H8.91016C8.52935 15.0729 8.2704 14.6859 8.41602 14.334L11.374 7.1875C11.4568 6.98758 11.6518 6.85742 11.8682 6.85742H12.1396ZM12.0068 8.40137C11.9934 8.40137 11.9815 8.40942 11.9766 8.42188L10.5762 11.9912H13.4375L12.0371 8.42188C12.0322 8.40942 12.0202 8.40138 12.0068 8.40137Z" fill="currentColor"/>
</svg>
