<svg viewBox="0 0 24 24" fill="none" xmlns="http://www.w3.org/2000/svg">
<path d="M6.05762 7.42871C6.37299 7.42897 6.62891 7.68457 6.62891 8C6.62891 8.31543 6.37299 8.57103 6.05762 8.57129H5.59961V11.543H10.6289V8.57129H10.1719C9.85628 8.57129 9.59961 8.31559 9.59961 8C9.59961 7.68441 9.85628 7.42871 10.1719 7.42871H12.2285C12.5441 7.42871 12.7998 7.68441 12.7998 8C12.7998 8.31559 12.5441 8.57129 12.2285 8.57129H11.7715V15.6572H12.2285C12.5441 15.6572 12.7998 15.913 12.7998 16.2285C12.7998 16.5441 12.5441 16.7998 12.2285 16.7998H10.1719C9.85628 16.7998 9.59961 16.5441 9.59961 16.2285C9.59964 15.913 9.8563 15.6572 10.1719 15.6572H10.6289V12.6855H5.59961V15.6572H6.05762C6.37297 15.6575 6.62888 15.9131 6.62891 16.2285C6.62891 16.5439 6.37299 16.7995 6.05762 16.7998H4C3.68441 16.7998 3.42871 16.5441 3.42871 16.2285C3.42874 15.913 3.68443 15.6572 4 15.6572H4.45703V8.57129H4C3.68441 8.57129 3.42871 8.31559 3.42871 8C3.42871 7.68441 3.68441 7.42871 4 7.42871H6.05762ZM17.4629 6.85742C17.6812 6.85743 17.8363 6.92714 17.9277 7.06738C18.0192 7.20772 18.0645 7.42639 18.0645 7.72266V15.5732H19.7793C20.3073 15.5733 20.5712 15.7398 20.5713 16.0723C20.5713 16.2334 20.5051 16.3579 20.373 16.4463C20.241 16.5294 20.0433 16.5713 19.7793 16.5713H15.0859C14.8167 16.5713 14.6155 16.5295 14.4834 16.4463C14.3516 16.3579 14.2861 16.2332 14.2861 16.0723C14.2862 15.7398 14.5527 15.5732 15.0859 15.5732H16.8301V8.26855C16.6016 8.50226 16.3149 8.67672 15.9697 8.79102C15.6245 8.90531 15.2816 8.96186 14.9414 8.96191C14.85 8.96191 14.7557 8.94622 14.6592 8.91504C14.5679 8.88389 14.4916 8.83239 14.4307 8.75977C14.3748 8.687 14.3467 8.59025 14.3467 8.4707C14.3467 8.34091 14.3776 8.24232 14.4385 8.1748C14.4994 8.10211 14.5756 8.04972 14.667 8.01855C14.7634 7.98744 14.8624 7.96906 14.9639 7.96387C15.3549 7.95866 15.7103 7.88112 16.0303 7.73047C16.3554 7.57974 16.6074 7.38721 16.7852 7.15332C16.8765 7.0599 16.9755 6.98748 17.082 6.93555C17.1887 6.88357 17.3156 6.85742 17.4629 6.85742Z" fill="currentColor"/>
</svg>
