<svg viewBox="0 0 24 24" fill="none" xmlns="http://www.w3.org/2000/svg">
<path d="M6.05762 7.42871C6.37299 7.42897 6.62891 7.68457 6.62891 8C6.62891 8.31543 6.37299 8.57103 6.05762 8.57129H5.59961V11.543H10.6289V8.57129H10.1719C9.85628 8.57129 9.59961 8.31559 9.59961 8C9.59961 7.68441 9.85628 7.42871 10.1719 7.42871H12.2285C12.5441 7.42871 12.7998 7.68441 12.7998 8C12.7998 8.31559 12.5441 8.57129 12.2285 8.57129H11.7715V15.6572H12.2285C12.5441 15.6572 12.7998 15.913 12.7998 16.2285C12.7998 16.5441 12.5441 16.7998 12.2285 16.7998H10.1719C9.85628 16.7998 9.59961 16.5441 9.59961 16.2285C9.59964 15.913 9.8563 15.6572 10.1719 15.6572H10.6289V12.6855H5.59961V15.6572H6.05762C6.37297 15.6575 6.62888 15.9131 6.62891 16.2285C6.62891 16.5439 6.37299 16.7995 6.05762 16.7998H4C3.68441 16.7998 3.42871 16.5441 3.42871 16.2285C3.42874 15.913 3.68443 15.6572 4 15.6572H4.45703V8.57129H4C3.68441 8.57129 3.42871 8.31559 3.42871 8C3.42871 7.68441 3.68441 7.42871 4 7.42871H6.05762ZM17.7373 6.85742C18.6379 6.85746 19.3493 7.08024 19.8721 7.52539C20.3949 7.97054 20.6572 8.62226 20.6572 9.48145C20.6572 9.93169 20.5352 10.4055 20.292 10.9023C20.0539 11.3992 19.7459 11.8914 19.3682 12.3779C18.9903 12.8645 18.5912 13.3233 18.1719 13.7529C17.7526 14.1774 17.3614 14.5502 16.999 14.8711C16.637 15.1865 16.3551 15.4219 16.1533 15.5771H20.1055C20.3747 15.5771 20.5763 15.622 20.7109 15.71C20.8454 15.7979 20.913 15.9191 20.9131 16.0742C20.9131 16.2347 20.8455 16.3593 20.7109 16.4473C20.5763 16.53 20.3745 16.5713 20.1055 16.5713H15.2988C15.0297 16.5713 14.8306 16.5195 14.7012 16.416C14.577 16.3073 14.5147 16.1626 14.5146 15.9814C14.5146 15.8158 14.5585 15.6807 14.6465 15.5771C14.7345 15.4685 14.8671 15.3421 15.043 15.1973C15.3173 14.9695 15.641 14.687 16.0137 14.3506C16.3914 14.009 16.774 13.636 17.1621 13.2324C17.5555 12.8235 17.9187 12.4043 18.25 11.9746C18.5864 11.5399 18.8574 11.1099 19.0645 10.6855C19.2715 10.261 19.376 9.86462 19.376 9.49707C19.3759 8.96916 19.225 8.563 18.9248 8.27832C18.6297 7.9885 18.2237 7.84376 17.7061 7.84375C17.2816 7.84375 16.9009 7.93668 16.5645 8.12305C16.2332 8.30939 15.9639 8.52166 15.7568 8.75977C15.6482 8.86842 15.5393 8.9588 15.4307 9.03125C15.3271 9.09854 15.2184 9.13281 15.1045 9.13281C14.97 9.13277 14.8436 9.08267 14.7246 8.98438C14.6108 8.88609 14.5538 8.76757 14.5537 8.62793C14.5537 8.41062 14.6723 8.19818 14.9102 7.99121C15.2052 7.68064 15.5965 7.41399 16.083 7.19141C16.5748 6.9688 17.1264 6.85742 17.7373 6.85742Z" fill="currentColor"/>
</svg>
