<svg viewBox="0 0 24 24" fill="none" xmlns="http://www.w3.org/2000/svg">
<path d="M6.05762 7.42871C6.37299 7.42897 6.62891 7.68457 6.62891 8C6.62891 8.31543 6.37299 8.57103 6.05762 8.57129H5.59961V11.543H10.6289V8.57129H10.1719C9.85628 8.57129 9.59961 8.31559 9.59961 8C9.59961 7.68441 9.85628 7.42871 10.1719 7.42871H12.2285C12.5441 7.42871 12.7998 7.68441 12.7998 8C12.7998 8.31559 12.5441 8.57129 12.2285 8.57129H11.7715V15.6572H12.2285C12.5441 15.6572 12.7998 15.913 12.7998 16.2285C12.7998 16.5441 12.5441 16.7998 12.2285 16.7998H10.1719C9.85628 16.7998 9.59961 16.5441 9.59961 16.2285C9.59964 15.913 9.8563 15.6572 10.1719 15.6572H10.6289V12.6855H5.59961V15.6572H6.05762C6.37297 15.6575 6.62888 15.9131 6.62891 16.2285C6.62891 16.5439 6.37299 16.7995 6.05762 16.7998H4C3.68441 16.7998 3.42871 16.5441 3.42871 16.2285C3.42874 15.913 3.68443 15.6572 4 15.6572H4.45703V8.57129H4C3.68441 8.57129 3.42871 8.31559 3.42871 8C3.42871 7.68441 3.68441 7.42871 4 7.42871H6.05762ZM17.2598 6.85742C17.7832 6.85745 18.2813 6.94072 18.7539 7.1084C19.2317 7.27615 19.621 7.5387 19.9209 7.89453C20.2206 8.24518 20.3701 8.69992 20.3701 9.25879C20.3701 9.69087 20.276 10.0702 20.0879 10.3955C19.8998 10.7155 19.6508 10.9747 19.3408 11.1729C19.0308 11.366 18.7003 11.4982 18.3496 11.5693C18.7308 11.6506 19.0894 11.7802 19.4248 11.958C19.7653 12.1308 20.0424 12.3699 20.2559 12.6748C20.4694 12.9798 20.5762 13.3663 20.5762 13.834C20.5762 14.4134 20.4268 14.9068 20.127 15.3135C19.8271 15.72 19.4277 16.0324 18.9297 16.251C18.4367 16.4644 17.8952 16.5712 17.3057 16.5713C16.7161 16.5713 16.1946 16.4726 15.7422 16.2744C15.2899 16.0762 14.9114 15.8343 14.6064 15.5498C14.4895 15.4532 14.4053 15.3563 14.3545 15.2598C14.3088 15.1581 14.2861 15.0639 14.2861 14.9775C14.2862 14.8302 14.3369 14.7079 14.4385 14.6113C14.5451 14.515 14.6649 14.4668 14.7969 14.4668C14.9086 14.4669 15.0174 14.5004 15.124 14.5664C15.2357 14.6273 15.3428 14.7108 15.4443 14.8174C15.6426 15.0411 15.8925 15.2266 16.1924 15.374C16.4973 15.5214 16.8631 15.5957 17.29 15.5957C17.6356 15.5957 17.9634 15.5296 18.2734 15.3975C18.5835 15.2602 18.8352 15.0565 19.0283 14.7871C19.2266 14.5177 19.3262 14.1846 19.3262 13.7881C19.3261 13.4171 19.2111 13.1074 18.9824 12.8584C18.7537 12.6094 18.4567 12.4183 18.0908 12.2861C17.7248 12.154 17.3356 12.0852 16.9238 12.0801C16.7714 12.0648 16.6391 12.0196 16.5273 11.9434C16.4206 11.862 16.3672 11.7443 16.3672 11.5918C16.3673 11.4245 16.4209 11.3055 16.5273 11.2344C16.6391 11.1632 16.7714 11.1198 16.9238 11.1045C17.3356 11.0943 17.7067 11.0228 18.0371 10.8906C18.3674 10.7534 18.6291 10.5578 18.8223 10.3037C19.0205 10.0445 19.1201 9.73397 19.1201 9.37305C19.1201 9.01737 19.0286 8.72477 18.8457 8.49609C18.6678 8.26742 18.436 8.09989 18.1514 7.99316C17.8669 7.88143 17.5697 7.82523 17.2598 7.8252C16.9192 7.8252 16.5906 7.89946 16.2754 8.04688C15.9655 8.19426 15.7118 8.38269 15.5137 8.61133C15.3968 8.72816 15.2926 8.81968 15.2012 8.88574C15.1148 8.94674 15.0097 8.97656 14.8877 8.97656C14.7506 8.97647 14.6336 8.92852 14.5371 8.83203C14.4457 8.73039 14.4004 8.6081 14.4004 8.46582C14.4005 8.26256 14.5073 8.06966 14.7207 7.88672C14.9749 7.61733 15.3152 7.37832 15.7422 7.16992C16.1743 6.96151 16.6803 6.85742 17.2598 6.85742Z" fill="currentColor"/>
</svg>
