<svg viewBox="0 0 24 24" fill="none" xmlns="http://www.w3.org/2000/svg">
<path d="M14.0449 6.74219C14.4684 6.74219 14.8175 6.7425 15.1006 6.76562C15.3896 6.78925 15.6557 6.83967 15.9053 6.9668C16.2922 7.16399 16.6065 7.47932 16.8037 7.86621C16.9307 8.11557 16.9822 8.38118 17.0059 8.66992C17.029 8.9529 17.0283 9.30222 17.0283 9.72559V14.0449L17.0254 14.626C17.0226 14.8011 17.0174 14.9593 17.0059 15.1006C16.9823 15.3895 16.9307 15.6558 16.8037 15.9053C16.6066 16.292 16.292 16.6065 15.9053 16.8037C15.6557 16.9309 15.3896 16.9822 15.1006 17.0059C14.9592 17.0174 14.8013 17.0226 14.626 17.0254L14.0449 17.0283H9.27832C9.13299 17.0283 8.98896 17.0287 8.87402 17.0186C8.86798 17.018 8.86129 17.0163 8.85449 17.0156C8.79025 17.0126 8.72847 17.0106 8.66992 17.0059C8.38102 16.9822 8.11568 16.9308 7.86621 16.8037C7.47922 16.6065 7.16403 16.2923 6.9668 15.9053C6.83973 15.6557 6.78924 15.3896 6.76562 15.1006C6.74253 14.8176 6.74219 14.4683 6.74219 14.0449V9.72559C6.74219 9.30222 6.7425 8.9529 6.76562 8.66992C6.78926 8.38125 6.83985 8.11551 6.9668 7.86621C7.16404 7.47931 7.47926 7.16396 7.86621 6.9668C8.11555 6.83989 8.38119 6.78923 8.66992 6.76562C8.95297 6.74251 9.30212 6.74219 9.72559 6.74219H14.0449ZM13.9375 11.5967C13.8917 11.6356 13.8323 11.6951 13.7246 11.8027L9.52734 15.998C9.59001 15.9981 9.65621 16 9.72559 16H14.0449L14.6094 15.9971C14.7681 15.9946 14.9009 15.9899 15.0166 15.9805C15.2419 15.962 15.358 15.9287 15.4385 15.8877C15.6317 15.7891 15.7892 15.6317 15.8877 15.4385C15.9286 15.358 15.9621 15.2417 15.9805 15.0166C15.9993 14.7852 16 14.485 16 14.0449V13.6416L14.1611 11.8027C14.0535 11.6951 13.9941 11.6356 13.9482 11.5967C13.9463 11.595 13.9441 11.5932 13.9424 11.5918C13.9408 11.5931 13.9392 11.5952 13.9375 11.5967ZM9.72559 7.77148C9.28517 7.77148 8.98536 7.77114 8.75391 7.79004C8.52906 7.80841 8.41341 7.84198 8.33301 7.88281C8.1396 7.98136 7.98144 8.13965 7.88281 8.33301C7.84195 8.41337 7.80844 8.52908 7.79004 8.75391C7.77113 8.98531 7.77148 9.28529 7.77148 9.72559V14.0449C7.77148 14.485 7.77118 14.7852 7.79004 15.0166C7.80844 15.2418 7.84188 15.358 7.88281 15.4385C7.96947 15.6085 8.10358 15.7478 8.26562 15.8467C8.29492 15.8028 8.3233 15.7668 8.34473 15.7412C8.41883 15.6527 8.52125 15.551 8.62402 15.4482L12.9971 11.0752C13.0928 10.9795 13.1862 10.8849 13.2715 10.8125C13.3389 10.7553 13.4203 10.6945 13.5195 10.6475L13.625 10.6055C13.8308 10.5387 14.0529 10.5389 14.2588 10.6055H14.2598C14.4087 10.6538 14.5234 10.7362 14.6133 10.8125C14.6985 10.8849 14.792 10.9795 14.8877 11.0752L16 12.1865V9.72559C16 9.28529 15.9994 8.98531 15.9805 8.75391C15.9621 8.52896 15.9286 8.41337 15.8877 8.33301C15.7891 8.13963 15.6319 7.98138 15.4385 7.88281C15.358 7.84184 15.2419 7.80846 15.0166 7.79004C14.7852 7.77115 14.4852 7.77148 14.0449 7.77148H9.72559ZM10.085 8.54297C10.9367 8.54304 11.6275 9.23331 11.6279 10.085C11.6279 10.937 10.937 11.6279 10.085 11.6279C9.23307 11.6277 8.54297 10.9369 8.54297 10.085C8.54344 9.23341 9.23336 8.54321 10.085 8.54297ZM10.085 9.57129C9.80142 9.57153 9.57176 9.80148 9.57129 10.085C9.57129 10.3688 9.80113 10.5994 10.085 10.5996C10.3689 10.5995 10.5996 10.3689 10.5996 10.085C10.5991 9.80137 10.3686 9.57136 10.085 9.57129Z" />
</svg>
