<svg viewBox="0 0 24 24" fill="none" xmlns="http://www.w3.org/2000/svg">
<path d="M8.1872 10.5704H12.5936M8.1872 8H17M8.1872 13.2632H12.5936M8.1872 15.8336H17M16.3733 10.2326L14.4802 11.6524C14.3385 11.7587 14.2676 11.8119 14.2423 11.877C14.2201 11.9341 14.2201 11.9974 14.2423 12.0545C14.2676 12.1196 14.3385 12.1728 14.4802 12.2791L16.3733 13.6989C16.575 13.8502 16.6759 13.9259 16.7603 13.9241C16.8338 13.9226 16.9026 13.8881 16.9479 13.8303C17 13.7638 17 13.6377 17 13.3856V10.5459C17 10.2938 17 10.1677 16.9479 10.1012C16.9026 10.0434 16.8338 10.0089 16.7603 10.0074C16.6759 10.0057 16.575 10.0813 16.3733 10.2326Z" stroke="currentColor" stroke-width="0.9792" stroke-linecap="round" stroke-linejoin="round"/>
</svg>
