<svg viewBox="0 0 24 24" fill="none" xmlns="http://www.w3.org/2000/svg">
<path d="M16.8128 10.5704H12.4064M16.8128 8H8M16.8128 13.2632H12.4064M16.8128 15.8336H8M8.62669 10.2326L10.5198 11.6524C10.6615 11.7587 10.7324 11.8119 10.7577 11.877C10.7799 11.9341 10.7799 11.9974 10.7577 12.0545C10.7324 12.1196 10.6615 12.1728 10.5198 12.2791L8.62669 13.6989C8.42498 13.8502 8.32413 13.9259 8.23971 13.9241C8.16625 13.9226 8.09736 13.8881 8.05205 13.8303C8 13.7638 8 13.6377 8 13.3856V10.5459C8 10.2938 8 10.1677 8.05205 10.1012C8.09736 10.0434 8.16625 10.0089 8.23971 10.0074C8.32413 10.0057 8.42498 10.0813 8.62669 10.2326Z" stroke="currentColor" stroke-width="0.9792" stroke-linecap="round" stroke-linejoin="round"/>
</svg>
