<svg viewBox="0 0 24 24" fill="none" xmlns="http://www.w3.org/2000/svg">
<path d="M15.7715 7.42871C16.087 7.42882 16.3428 7.68447 16.3428 8C16.3428 8.31553 16.087 8.57118 15.7715 8.57129H14.1104L11.4531 15.6572H13.2002C13.5156 15.6574 13.7715 15.9131 13.7715 16.2285C13.7715 16.544 13.5156 16.7996 13.2002 16.7998H8.57129C8.2557 16.7998 8 16.5441 8 16.2285C8.00003 15.9129 8.25572 15.6572 8.57129 15.6572H10.2324L12.8896 8.57129H11.1426C10.8271 8.57121 10.5713 8.31554 10.5713 8C10.5713 7.68446 10.8271 7.42879 11.1426 7.42871H15.7715Z" fill="currentColor"/>
</svg>
