<svg viewBox="0 0 24 24" fill="none" xmlns="http://www.w3.org/2000/svg">
<path d="M8.64873 11.5569C8.87188 11.3338 9.23418 11.3338 9.45733 11.5569C9.67999 11.7801 9.68028 12.1425 9.45733 12.3655L8.72979 13.0931C7.94893 13.8741 7.9488 15.1402 8.72979 15.9212C9.51082 16.7017 10.7771 16.7019 11.5579 15.9212L12.2855 15.1937C12.5086 14.9705 12.8709 14.9705 13.094 15.1937C13.3166 15.4169 13.317 15.7793 13.094 16.0022L12.3665 16.7288C11.1393 17.9561 9.14859 17.9557 7.92119 16.7288C6.69431 15.5015 6.69416 13.5117 7.92119 12.2845L8.64873 11.5569ZM13.722 10.1204C13.945 9.89767 14.3065 9.89778 14.5296 10.1204C14.7523 10.3436 14.7526 10.706 14.5296 10.929L10.93 14.5286C10.707 14.7516 10.3446 14.7513 10.1214 14.5286C9.89874 14.3055 9.89868 13.944 10.1214 13.721L13.722 10.1204ZM12.2855 7.92022C13.5127 6.69318 15.5025 6.69334 16.7298 7.92022C17.9567 9.14762 17.957 11.1383 16.7298 12.3655L16.0032 13.0931C15.7803 13.316 15.4178 13.3156 15.1946 13.0931C14.9715 12.8699 14.9715 12.5076 15.1946 12.2845L15.9222 11.5569C16.7028 10.776 16.7026 9.50982 15.9222 8.72881C15.19 7.99663 14.0309 7.95055 13.2454 8.59111L13.094 8.72881L12.3665 9.45635C12.1435 9.67933 11.7811 9.67904 11.5579 9.45635C11.3348 9.2332 11.3348 8.87091 11.5579 8.64775L12.2855 7.92022Z" fill="currentColor"/>
</svg>
