<svg viewBox="0 0 24 24" fill="none" xmlns="http://www.w3.org/2000/svg">
<path d="M11.8861 12.6859C12.2333 12.6859 12.5147 12.4044 12.5147 12.0573C12.5147 11.7101 12.2333 11.4287 11.8861 11.4287C11.5389 11.4287 11.2575 11.7101 11.2575 12.0573C11.2575 12.4044 11.5389 12.6859 11.8861 12.6859Z" fill="currentColor"/>
<path d="M16.2857 12.6859C16.6328 12.6859 16.9142 12.4044 16.9142 12.0573C16.9142 11.7101 16.6328 11.4287 16.2857 11.4287C15.9385 11.4287 15.6571 11.7101 15.6571 12.0573C15.6571 12.4044 15.9385 12.6859 16.2857 12.6859Z" fill="currentColor"/>
<path d="M7.48599 12.6859C7.83314 12.6859 8.11456 12.4044 8.11456 12.0573C8.11456 11.7101 7.83314 11.4287 7.48599 11.4287C7.13885 11.4287 6.85742 11.7101 6.85742 12.0573C6.85742 12.4044 7.13885 12.6859 7.48599 12.6859Z" fill="currentColor"/>
<path d="M11.8861 12.6859C12.2333 12.6859 12.5147 12.4044 12.5147 12.0573C12.5147 11.7101 12.2333 11.4287 11.8861 11.4287C11.5389 11.4287 11.2575 11.7101 11.2575 12.0573C11.2575 12.4044 11.5389 12.6859 11.8861 12.6859Z" stroke="currentColor" stroke-width="1.25714" stroke-linecap="round" stroke-linejoin="round"/>
<path d="M16.2857 12.6859C16.6328 12.6859 16.9142 12.4044 16.9142 12.0573C16.9142 11.7101 16.6328 11.4287 16.2857 11.4287C15.9385 11.4287 15.6571 11.7101 15.6571 12.0573C15.6571 12.4044 15.9385 12.6859 16.2857 12.6859Z" stroke="currentColor" stroke-width="1.25714" stroke-linecap="round" stroke-linejoin="round"/>
<path d="M7.48599 12.6859C7.83314 12.6859 8.11456 12.4044 8.11456 12.0573C8.11456 11.7101 7.83314 11.4287 7.48599 11.4287C7.13885 11.4287 6.85742 11.7101 6.85742 12.0573C6.85742 12.4044 7.13885 12.6859 7.48599 12.6859Z" stroke="currentColor" stroke-width="1.25714" stroke-linecap="round" stroke-linejoin="round"/>
</svg>
