<svg viewBox="0 0 24 24" fill="none" xmlns="http://www.w3.org/2000/svg">
<g clip-path="url(#clip0_24959_2708)">
<path d="M17.2269 12.0221H10.2881M17.2269 8.55273H10.2881M17.2269 15.4915H10.2881" stroke="currentColor" stroke-width="1.16815" stroke-linecap="round" stroke-linejoin="round"/>
<path d="M6.67079 11.2051C6.45693 11.2051 6.29863 11.1694 6.19589 11.0981C6.09316 11.0269 6.04179 10.9262 6.04179 10.7962C6.04179 10.5299 6.25146 10.3968 6.67079 10.3968H6.87836V8.39344C6.81756 8.4165 6.74837 8.43642 6.67079 8.45319C6.59321 8.46996 6.51144 8.47835 6.42548 8.47835C6.35419 8.47835 6.28081 8.46787 6.20533 8.4469C6.13195 8.42384 6.06905 8.384 6.01663 8.32739C5.96631 8.26868 5.94115 8.18586 5.94115 8.07893C5.94115 7.972 5.96631 7.88814 6.01663 7.82733C6.06905 7.76653 6.13299 7.72355 6.20847 7.69839C6.28395 7.67113 6.35734 7.65645 6.42863 7.65436C6.5691 7.64807 6.68127 7.62605 6.76514 7.58831C6.85111 7.55057 6.92659 7.50864 6.99158 7.46251C7.05448 7.41848 7.12472 7.3776 7.2023 7.33986C7.27988 7.30212 7.38261 7.28325 7.51051 7.28325C7.70131 7.28325 7.8334 7.343 7.90678 7.46251C7.98017 7.58202 8.01686 7.77177 8.01686 8.03176V10.3968H8.22757C8.64691 10.3968 8.85658 10.5299 8.85658 10.7962C8.85658 10.9262 8.80521 11.0269 8.70247 11.0981C8.59973 11.1694 8.44143 11.2051 8.22757 11.2051H6.67079Z" fill="currentColor"/>
<path d="M8.93634 13.5223C8.93634 13.6984 8.89021 13.8735 8.79796 14.0475C8.7078 14.2194 8.59353 14.383 8.45515 14.5381C8.31677 14.6933 8.17315 14.8338 8.02428 14.9596C7.87752 15.0833 7.74543 15.1849 7.62801 15.2646C7.5127 15.3422 7.43302 15.3904 7.38899 15.4093H8.42999C8.64385 15.4093 8.80215 15.4449 8.90489 15.5162C9.00763 15.5854 9.05899 15.685 9.05899 15.815C9.05899 15.945 9.00763 16.0456 8.90489 16.1169C8.80215 16.1861 8.64385 16.2207 8.42999 16.2207H6.53984C6.32598 16.2207 6.17292 16.1756 6.08067 16.0855C5.98841 15.9953 5.94229 15.8852 5.94229 15.7552C5.94229 15.619 5.98003 15.511 6.05551 15.4313C6.13308 15.3495 6.24526 15.2541 6.39202 15.1451C6.49895 15.0654 6.61532 14.9753 6.74112 14.8746C6.86692 14.774 6.99167 14.6681 7.11538 14.557C7.23908 14.4459 7.35125 14.3326 7.45189 14.2173C7.55463 14.0999 7.6364 13.9856 7.6972 13.8745C7.75801 13.7634 7.78841 13.6586 7.78841 13.56C7.78841 13.4112 7.75591 13.2969 7.69091 13.2172C7.62592 13.1375 7.53786 13.0977 7.42673 13.0977C7.33657 13.0977 7.24956 13.1239 7.1657 13.1763C7.08393 13.2266 7.0032 13.2843 6.92353 13.3493C6.84176 13.4143 6.75894 13.473 6.67507 13.5254C6.59121 13.5757 6.5021 13.6009 6.40775 13.6009C6.29662 13.6009 6.18864 13.559 6.08381 13.4751C5.98107 13.3912 5.92971 13.2916 5.92971 13.1763C5.92971 12.9918 6.03768 12.8178 6.25364 12.6543C6.38993 12.5494 6.55766 12.4624 6.75684 12.3932C6.95812 12.324 7.18771 12.2894 7.4456 12.2894C7.89429 12.2894 8.25492 12.3859 8.52749 12.5788C8.80005 12.7717 8.93634 13.0862 8.93634 13.5223Z" fill="currentColor"/>
</g>
<defs>
<clipPath id="clip0_24959_2708">
<rect width="12.616" height="12.616" fill="white" transform="translate(5.71387 5.71387)"/>
</clipPath>
</defs>
</svg>
