<svg viewBox="0 0 24 24" fill="none" xmlns="http://www.w3.org/2000/svg">
<path d="M7 13.411C7 12.7296 7.14797 12.1291 7.44392 11.6095C7.73986 11.0899 8.16485 10.6838 8.71889 10.3913C9.27637 10.0954 9.94568 9.94741 10.7268 9.94741H13.9788L15.7183 10.03L15.5583 10.3294L14.2679 9.24023L12.9413 7.94461C12.8896 7.893 12.8484 7.83622 12.8174 7.77427C12.7899 7.70889 12.7761 7.63491 12.7761 7.55232C12.7761 7.39058 12.826 7.25809 12.9258 7.15485C13.029 7.05162 13.1632 7 13.3284 7C13.4867 7 13.6243 7.06022 13.7414 7.18066L16.7042 10.0971C16.7627 10.1522 16.8075 10.2175 16.8384 10.2932C16.8694 10.3655 16.8849 10.4412 16.8849 10.5204C16.8849 10.5961 16.8694 10.6701 16.8384 10.7423C16.8075 10.8146 16.7627 10.88 16.7042 10.9385L13.7414 13.8549C13.6243 13.9719 13.4867 14.0304 13.3284 14.0304C13.1632 14.0304 13.029 13.9788 12.9258 13.8756C12.826 13.7723 12.7761 13.6416 12.7761 13.4833C12.7761 13.4007 12.7899 13.3267 12.8174 13.2613C12.8484 13.1959 12.8896 13.1391 12.9413 13.091L14.2679 11.8005L15.5583 10.7114L15.7183 11.0056L13.9788 11.083H10.701C10.1436 11.083 9.67383 11.1811 9.29185 11.3772C8.90988 11.5699 8.61909 11.8384 8.4195 12.1825C8.21991 12.5266 8.12012 12.9223 8.12012 13.3697C8.12012 13.8171 8.21991 14.2162 8.4195 14.5672C8.61909 14.9182 8.90988 15.1953 9.29185 15.3983C9.67383 15.6013 10.1436 15.7028 10.701 15.7028H11.8986C12.0672 15.7028 12.2048 15.7579 12.3115 15.868C12.4216 15.9781 12.4767 16.1106 12.4767 16.2655C12.4767 16.4238 12.4216 16.558 12.3115 16.6681C12.2048 16.7782 12.0672 16.8333 11.8986 16.8333H10.6597C9.8889 16.8333 9.22991 16.6922 8.68276 16.41C8.13904 16.1278 7.72266 15.7304 7.43359 15.2176C7.14453 14.7049 7 14.1027 7 13.411Z" fill="currentColor"/>
</svg>
