<svg viewBox="0 0 24 24" fill="none" xmlns="http://www.w3.org/2000/svg">
<path d="M11.92 7.42871C14.0749 7.42874 14.8172 8.57806 15.0806 9.44005C15.1046 9.49988 15.1166 9.55972 15.1166 9.61955C15.1166 9.87094 14.913 10.0507 14.6736 10.0986C14.6138 10.1106 14.5419 10.1226 14.4701 10.1226C14.2546 10.1226 14.0391 10.0267 13.9433 9.77532C13.7518 9.09292 13.2488 8.42255 11.92 8.42252C10.5312 8.42252 9.89665 9.11691 9.89665 9.90708C9.89669 10.769 10.3157 11.212 11.6565 11.4754L12.5425 11.6549C12.6962 11.6874 12.844 11.7218 12.9861 11.7581H17.8471C18.0896 11.7581 18.2861 11.9546 18.2861 12.1971C18.2861 12.4396 18.0896 12.6361 17.8471 12.6361H14.7931C15.2104 13.0529 15.4279 13.6191 15.4279 14.4205C15.4279 15.9649 14.2425 17.1261 12.0995 17.1261C9.36985 17.1261 8.80718 15.7135 8.51984 14.7438C8.50787 14.6839 8.49583 14.6359 8.49583 14.588C8.49589 14.3247 8.69948 14.1451 8.95086 14.0852C9.02266 14.0733 9.08256 14.0612 9.15437 14.0612C9.38182 14.0613 9.60931 14.1691 9.68114 14.4205C9.89664 15.2227 10.2918 16.1206 12.0398 16.1206C13.4045 16.1206 14.2546 15.4621 14.2546 14.4325C14.2546 13.4508 13.7157 13.0198 12.303 12.7324L11.8497 12.6361H6.72516C6.48269 12.6361 6.28613 12.4396 6.28613 12.1971C6.28613 11.9546 6.48269 11.7581 6.72516 11.7581H9.46849C8.9712 11.3377 8.73537 10.7507 8.73535 9.90708C8.73535 8.65 9.66921 7.42871 11.92 7.42871Z" fill="currentColor"/>
</svg>
