<svg viewBox="0 0 24 24" fill="none" xmlns="http://www.w3.org/2000/svg">
<path d="M14.6826 7.42871C14.9142 7.42871 15.1169 7.42806 15.2842 7.43945C15.4567 7.45122 15.6339 7.47802 15.8096 7.55078C16.2012 7.71316 16.5125 8.02422 16.6748 8.41602L16.7217 8.54785C16.7602 8.67957 16.7763 8.81121 16.7852 8.94043C16.7966 9.10771 16.7969 9.31038 16.7969 9.54199C16.7969 9.85748 16.541 10.1131 16.2256 10.1133C15.91 10.1133 15.6543 9.85758 15.6543 9.54199C15.6543 9.29479 15.6537 9.13794 15.6455 9.01855C15.6377 8.9048 15.6247 8.86694 15.6191 8.85352C15.5728 8.7417 15.4839 8.65284 15.3721 8.60645C15.3588 8.60095 15.321 8.58788 15.207 8.58008C15.0876 8.57193 14.93 8.57129 14.6826 8.57129H12.6836V15.6543H13.6553C13.9707 15.6545 14.2266 15.9101 14.2266 16.2256C14.2264 16.5409 13.9706 16.7967 13.6553 16.7969H10.5703C10.2549 16.7968 9.99919 16.541 9.99902 16.2256C9.99903 15.91 10.2548 15.6543 10.5703 15.6543H11.541V8.57129H9.54199C9.29479 8.57129 9.13794 8.57193 9.01855 8.58008C8.9044 8.58787 8.86679 8.60095 8.85352 8.60645C8.74161 8.6528 8.6528 8.74161 8.60645 8.85352C8.60095 8.86679 8.58787 8.9044 8.58008 9.01855C8.57193 9.13794 8.57129 9.29479 8.57129 9.54199C8.57129 9.85758 8.31559 10.1133 8 10.1133C7.68441 10.1133 7.42871 9.85758 7.42871 9.54199C7.42871 9.31039 7.42804 9.10771 7.43945 8.94043C7.45123 8.76806 7.47805 8.59161 7.55078 8.41602C7.71313 8.02421 8.02421 7.71313 8.41602 7.55078C8.59161 7.47805 8.76806 7.45123 8.94043 7.43945C9.10771 7.42804 9.31039 7.42871 9.54199 7.42871H14.6826Z" fill="currentColor"/>
</svg>
