<svg viewBox="0 0 24 24" fill="none" xmlns="http://www.w3.org/2000/svg">
<path d="M7.35938 14.1426C7.98739 14.1426 8.49707 14.6522 8.49707 15.2803C8.49696 15.9082 7.98732 16.417 7.35938 16.417C6.77086 16.4168 6.28681 15.9697 6.22852 15.3965L6.22266 15.2803L6.22852 15.1641C6.28662 14.5907 6.77072 14.1428 7.35938 14.1426ZM16.9766 14.709C17.2922 14.709 17.5479 14.9647 17.5479 15.2803C17.5477 15.5958 17.2921 15.8516 16.9766 15.8516H10.1885C9.87302 15.8515 9.6173 15.5957 9.61719 15.2803C9.61719 14.9647 9.87295 14.7091 10.1885 14.709H16.9766ZM7.35547 15.2764L7.35449 15.2773C7.35393 15.2787 7.35353 15.2803 7.35352 15.2803L7.35547 15.2842L7.35938 15.2861C7.35937 15.2861 7.36099 15.2857 7.3623 15.2852L7.36328 15.2842L7.36523 15.2803L7.36426 15.2773L7.3623 15.2754L7.35938 15.2744L7.35547 15.2764ZM7.47559 10.7549C8.04912 10.813 8.49705 11.2969 8.49707 11.8857C8.49707 12.5138 7.98739 13.0225 7.35938 13.0225C6.73155 13.0222 6.22266 12.5136 6.22266 11.8857C6.22268 11.2579 6.73157 10.7493 7.35938 10.749L7.47559 10.7549ZM16.9766 11.3145C17.2921 11.3145 17.5478 11.5702 17.5479 11.8857C17.5479 12.2013 17.2922 12.457 16.9766 12.457H10.1885C9.87295 12.457 9.61719 12.2013 9.61719 11.8857C9.61721 11.5702 9.87296 11.3145 10.1885 11.3145H16.9766ZM7.35547 11.8818L7.35352 11.8857L7.35547 11.8896L7.35938 11.8916C7.35937 11.8916 7.36099 11.8912 7.3623 11.8906L7.36328 11.8896L7.36523 11.8857L7.36328 11.8818L7.3623 11.8809C7.36099 11.8803 7.35937 11.8799 7.35938 11.8799L7.35547 11.8818ZM7.35938 7.35449C7.9873 7.35449 8.49692 7.86332 8.49707 8.49121C8.49707 9.11923 7.9874 9.62891 7.35938 9.62891C6.73155 9.62868 6.22266 9.11909 6.22266 8.49121C6.22281 7.86346 6.73164 7.35472 7.35938 7.35449ZM16.9766 7.91992C17.2921 7.91992 17.5477 8.17575 17.5479 8.49121C17.5479 8.8068 17.2922 9.0625 16.9766 9.0625H10.1885C9.87295 9.06242 9.61719 8.80676 9.61719 8.49121C9.61734 8.1758 9.87304 7.92 10.1885 7.91992H16.9766ZM7.35547 8.4873L7.35352 8.49121C7.35353 8.49119 7.35393 8.4928 7.35449 8.49414L7.35547 8.49512L7.35938 8.49707C7.35938 8.49706 7.361 8.49663 7.3623 8.49609L7.36426 8.49414C7.36477 8.49292 7.36516 8.49146 7.36523 8.49121L7.36328 8.4873L7.3623 8.48633C7.36099 8.48579 7.35937 8.48537 7.35938 8.48535L7.35547 8.4873Z" fill="currentColor"/>
</svg>
