<svg viewBox="0 0 24 24" fill="none" xmlns="http://www.w3.org/2000/svg">
<path d="M15.7998 15.7432C16.1154 15.7432 16.3711 15.9989 16.3711 16.3145C16.3709 16.6299 16.1153 16.8857 15.7998 16.8857H7.57129C7.2558 16.8857 7.00017 16.6299 7 16.3145C7 15.9989 7.2557 15.7432 7.57129 15.7432H15.7998ZM14.7715 7C15.087 7.00011 15.3428 7.25576 15.3428 7.57129V11.1709C15.3428 13.1907 13.7053 14.8281 11.6855 14.8281C9.66577 14.8281 8.02832 13.1907 8.02832 11.1709V7.57129C8.02832 7.25578 8.28413 7.00014 8.59961 7C8.9152 7 9.1709 7.2557 9.1709 7.57129V11.1709C9.1709 12.5595 10.297 13.6855 11.6855 13.6855C13.0741 13.6855 14.2002 12.5595 14.2002 11.1709V7.57129C14.2002 7.2557 14.4559 7 14.7715 7Z" fill="currentColor"/>
</svg>
