<svg viewBox="0 0 24 24" fill="none" xmlns="http://www.w3.org/2000/svg">
<path d="M16.8849 13.411C16.8849 14.1027 16.7404 14.7049 16.4513 15.2176C16.1622 15.7304 15.7441 16.1278 15.197 16.41C14.6533 16.6922 13.996 16.8333 13.2252 16.8333H11.9863C11.8177 16.8333 11.6801 16.7782 11.5734 16.6681C11.4667 16.558 11.4134 16.4238 11.4134 16.2655C11.4134 16.1106 11.4667 15.9781 11.5734 15.868C11.6801 15.7579 11.8177 15.7028 11.9863 15.7028H13.189C13.7431 15.7028 14.2111 15.6013 14.5931 15.3983C14.9785 15.1953 15.2693 14.9182 15.4654 14.5672C15.665 14.2162 15.7648 13.8171 15.7648 13.3697C15.7648 12.9223 15.665 12.5266 15.4654 12.1825C15.2693 11.8384 14.9785 11.5699 14.5931 11.3772C14.2111 11.1811 13.7431 11.083 13.189 11.083H9.90611L8.16657 11.0056L8.32659 10.7114L9.61705 11.8005L10.9436 13.091C10.9918 13.1391 11.0314 13.1959 11.0624 13.2613C11.0933 13.3267 11.1088 13.4007 11.1088 13.4833C11.1088 13.6416 11.0572 13.7723 10.954 13.8756C10.8542 13.9788 10.72 14.0304 10.5513 14.0304C10.3965 14.0304 10.2623 13.9719 10.1487 13.8549L7.18066 10.9385C7.12216 10.88 7.07743 10.8146 7.04646 10.7423C7.01549 10.6701 7 10.5961 7 10.5204C7 10.4412 7.01549 10.3655 7.04646 10.2932C7.07743 10.2175 7.12216 10.1522 7.18066 10.0971L10.1487 7.18066C10.2623 7.06022 10.3965 7 10.5513 7C10.72 7 10.8542 7.05162 10.954 7.15485C11.0572 7.25809 11.1088 7.39058 11.1088 7.55232C11.1088 7.63491 11.0933 7.70889 11.0624 7.77427C11.0314 7.83622 10.9918 7.893 10.9436 7.94462L9.61705 9.24023L8.32659 10.3294L8.16657 10.03L9.90611 9.94741H13.1581C13.9392 9.94741 14.6085 10.0954 15.166 10.3913C15.7235 10.6838 16.1485 11.0899 16.441 11.6095C16.7369 12.1291 16.8849 12.7296 16.8849 13.411Z" fill="currentColor"/>
</svg>
